<svg xmlns="http://www.w3.org/2000/svg" xmlns:xlink="http://www.w3.org/1999/xlink" viewBox="0 0 500 500"><defs><style>.cls-1{fill:#e49e9d;}.cls-2{fill:#f6e5e7;}.cls-3{fill:#f0dade;}.cls-4{fill:#fffffc;}.cls-5{fill:#efc4bf;}.cls-13,.cls-17,.cls-6,.cls-7{fill:none;stroke-miterlimit:10;}.cls-6,.cls-7{stroke:#e1aca9;}.cls-6{stroke-width:2.05px;}.cls-13,.cls-7{stroke-width:3.08px;}.cls-8{fill:#ecf3f6;}.cls-14,.cls-9{fill:#fff;}.cls-10{fill:#614b8c;}.cls-11{fill:#241f48;}.cls-12{fill:#e1aca9;}.cls-13,.cls-17{stroke:#614b8c;}.cls-14{font-size:19.41px;font-family:Montserrat-ExtraBold, Montserrat ExtraBold;font-weight:800;letter-spacing:0.15em;}.cls-15{letter-spacing:0.13em;}.cls-16{letter-spacing:0.15em;}.cls-17{stroke-width:1.61px;}.cls-18{fill:#1c1a33;}.cls-19{fill:#bda2e1;}.cls-20{fill:#d263a2;}.cls-21{clip-path:url(#clip-path);}.cls-22{fill:#171417;}.cls-23{fill:#ecc340;}.cls-24{fill:#bca2e5;}</style><clipPath id="clip-path" transform="translate(-0.24 0.56)"><path class="cls-1" d="M290.48,294.77l11.53-.12.88-14.6a4.91,4.91,0,0,0-5-4.86l-5.91,0A5.12,5.12,0,0,0,287,280.4l.11,11A3.38,3.38,0,0,0,290.48,294.77Z"/></clipPath></defs><title>2411704</title><g id="BACKGROUND"><rect class="cls-2" width="500" height="500"/></g><g id="OBJECTS"><circle class="cls-3" cx="102.57" cy="69.2" r="32.7" transform="translate(11.13 153.38) rotate(-76.53)"/><path class="cls-4" d="M112.7,73.35h71.77a16.09,16.09,0,0,0-14.58-11.46s-5.07-.89-10.15,4.75S148,59.88,131.47,59.88,112.7,73.35,112.7,73.35Z" transform="translate(-0.24 0.56)"/><path class="cls-4" d="M384.35,172.34H434a11.14,11.14,0,0,0-10.09-7.93s-3.52-.62-7,3.28S408.8,163,397.34,163,384.35,172.34,384.35,172.34Z" transform="translate(-0.24 0.56)"/><polygon class="cls-3" points="394.36 234.36 394.36 217.74 385.99 217.74 385.99 234.36 378.9 234.36 378.9 217.74 370.54 217.74 370.54 234.36 136.68 234.36 136.68 207.67 118.31 207.67 118.31 190.49 109.95 190.49 109.95 207.67 89.58 207.67 89.58 381.62 128.07 381.62 136.68 381.62 413.35 381.62 413.35 234.36 394.36 234.36"/><rect class="cls-5" x="146.49" y="123.21" width="208.63" height="257.93"/><line class="cls-6" x1="146.49" y1="210.79" x2="355.12" y2="210.79"/><line class="cls-6" x1="146.49" y1="285.95" x2="355.12" y2="285.95"/><line class="cls-7" x1="151.96" y1="138.74" x2="159.9" y2="138.74"/><line class="cls-7" x1="338.68" y1="138.74" x2="346.62" y2="138.74"/><line class="cls-7" x1="153.56" y1="300.75" x2="161.5" y2="300.75"/><line class="cls-7" x1="338.68" y1="229.31" x2="346.62" y2="229.31"/><line class="cls-7" x1="157.53" y1="144.5" x2="165.47" y2="144.5"/><rect class="cls-8" x="168.55" y="149.85" width="36.99" height="37.22"/><polygon class="cls-9" points="198.8 149.54 168.55 169.19 168.55 175.94 205.54 151.88 198.8 149.54"/><polygon class="cls-9" points="205.54 155.9 169.46 179.33 169.46 183.93 206.45 159.88 205.54 155.9"/><path class="cls-10" d="M207.29,188h-40V147.78h40Zm-37-3h34V150.8h-34Z" transform="translate(-0.24 0.56)"/><rect class="cls-11" x="164.27" y="184.43" width="45.55" height="12.13"/><rect class="cls-10" x="168.55" y="166.16" width="36.99" height="3.03"/><rect class="cls-12" x="164.27" y="196.55" width="45.55" height="4.72"/><rect class="cls-8" x="230.51" y="149.85" width="36.99" height="37.22"/><polygon class="cls-9" points="260.76 149.54 230.51 169.19 230.51 175.94 267.5 151.88 260.76 149.54"/><polygon class="cls-9" points="267.5 155.9 231.42 179.33 231.42 183.93 268.41 159.88 267.5 155.9"/><path class="cls-10" d="M269.25,188h-40V147.78h40Zm-37-3h34V150.8h-34Z" transform="translate(-0.24 0.56)"/><rect class="cls-11" x="226.23" y="184.43" width="45.55" height="12.13"/><rect class="cls-10" x="230.51" y="166.16" width="36.99" height="3.03"/><rect class="cls-12" x="226.23" y="196.55" width="45.55" height="4.72"/><rect class="cls-8" x="292.47" y="149.85" width="36.99" height="37.22"/><polygon class="cls-9" points="322.72 149.54 292.46 169.19 292.46 175.94 329.45 151.88 322.72 149.54"/><polygon class="cls-9" points="329.45 155.9 293.38 179.33 293.38 183.93 330.37 159.88 329.45 155.9"/><path class="cls-10" d="M331.21,188h-40V147.78h40Zm-37-3h34V150.8h-34Z" transform="translate(-0.24 0.56)"/><rect class="cls-11" x="288.18" y="184.43" width="45.55" height="12.13"/><rect class="cls-10" x="292.47" y="166.16" width="36.99" height="3.03"/><rect class="cls-12" x="288.18" y="196.55" width="45.55" height="4.72"/><rect class="cls-8" x="168.55" y="224.29" width="36.99" height="37.22"/><polygon class="cls-9" points="198.8 223.98 168.55 243.62 168.55 250.37 205.54 226.32 198.8 223.98"/><polygon class="cls-9" points="205.54 230.34 169.46 253.76 169.46 258.37 206.45 234.31 205.54 230.34"/><path class="cls-10" d="M207.29,262.46h-40V222.21h40Zm-37-3h34V225.24h-34Z" transform="translate(-0.24 0.56)"/><rect class="cls-11" x="164.27" y="258.87" width="45.55" height="12.13"/><rect class="cls-10" x="168.55" y="240.6" width="36.99" height="3.03"/><rect class="cls-12" x="164.27" y="270.99" width="45.55" height="4.72"/><rect class="cls-8" x="230.51" y="224.29" width="36.99" height="37.22"/><polygon class="cls-9" points="260.76 223.98 230.51 243.62 230.51 250.37 267.5 226.32 260.76 223.98"/><polygon class="cls-9" points="267.5 230.34 231.42 253.76 231.42 258.37 268.41 234.31 267.5 230.34"/><path class="cls-10" d="M269.25,262.46h-40V222.21h40Zm-37-3h34V225.24h-34Z" transform="translate(-0.24 0.56)"/><rect class="cls-11" x="226.23" y="258.87" width="45.55" height="12.13"/><rect class="cls-10" x="230.51" y="240.6" width="36.99" height="3.03"/><rect class="cls-12" x="226.23" y="270.99" width="45.55" height="4.72"/><rect class="cls-8" x="292.47" y="224.29" width="36.99" height="37.22"/><polygon class="cls-9" points="322.72 223.98 292.46 243.62 292.46 250.37 329.45 226.32 322.72 223.98"/><polygon class="cls-9" points="329.45 230.34 293.38 253.76 293.38 258.37 330.37 234.31 329.45 230.34"/><path class="cls-10" d="M331.21,262.46h-40V222.21h40Zm-37-3h34V225.24h-34Z" transform="translate(-0.24 0.56)"/><rect class="cls-11" x="288.18" y="258.87" width="45.55" height="12.13"/><rect class="cls-10" x="292.47" y="240.6" width="36.99" height="3.03"/><rect class="cls-12" x="288.18" y="270.99" width="45.55" height="4.72"/><rect class="cls-8" x="168.55" y="298.72" width="36.99" height="37.22"/><polygon class="cls-9" points="198.8 298.42 168.55 318.06 168.55 324.81 205.54 300.76 198.8 298.42"/><polygon class="cls-9" points="205.54 304.78 169.46 328.2 169.46 332.8 206.45 308.75 205.54 304.78"/><path class="cls-10" d="M207.29,336.89h-40V296.65h40Zm-37-3h34V299.68h-34Z" transform="translate(-0.24 0.56)"/><rect class="cls-11" x="164.27" y="333.3" width="45.55" height="12.13"/><rect class="cls-10" x="168.55" y="315.03" width="36.99" height="3.03"/><rect class="cls-12" x="164.27" y="345.43" width="45.55" height="4.72"/><rect class="cls-8" x="292.47" y="298.72" width="36.99" height="37.22"/><polygon class="cls-9" points="322.72 298.42 292.46 318.06 292.46 324.81 329.45 300.76 322.72 298.42"/><polygon class="cls-9" points="329.45 304.78 293.38 328.2 293.38 332.8 330.37 308.75 329.45 304.78"/><path class="cls-10" d="M331.21,336.89h-40V296.65h40Zm-37-3h34V299.68h-34Z" transform="translate(-0.24 0.56)"/><rect class="cls-11" x="288.18" y="333.3" width="45.55" height="12.13"/><rect class="cls-10" x="292.47" y="315.03" width="36.99" height="3.03"/><rect class="cls-12" x="288.18" y="345.43" width="45.55" height="4.72"/><rect class="cls-8" x="226.27" y="303.89" width="45.52" height="76.78"/><polygon class="cls-9" points="226.27 356.71 226.27 349.14 271.8 315.37 271.8 322.94 226.27 356.71"/><polygon class="cls-9" points="226.09 365.96 226.1 362.92 271.63 329.14 271.62 332.18 226.09 365.96"/><line class="cls-13" x1="249.15" y1="304.87" x2="249.15" y2="380"/><rect class="cls-13" x="226.27" y="316.18" width="45.52" height="63.47"/><polygon class="cls-10" points="217.73 312.84 225.58 297.13 273.3 297.13 279.98 312.84 217.73 312.84"/><rect class="cls-11" x="217.73" y="312.84" width="62.26" height="6.68"/><rect class="cls-10" x="139.32" y="110.39" width="221.5" height="17.48"/><rect class="cls-11" x="139.32" y="123.21" width="221.5" height="4.65"/><path class="cls-10" d="M200.53,88.66h99.1a10.22,10.22,0,0,1,10.22,10.22v21.28a0,0,0,0,1,0,0H190.31a0,0,0,0,1,0,0V98.88A10.22,10.22,0,0,1,200.53,88.66Z"/><text class="cls-14" transform="translate(208.27 110.62)">H<tspan class="cls-15" x="15.56" y="0">O</tspan><tspan class="cls-16" x="31.36" y="0">TEL</tspan></text><path class="cls-5" d="M138.22,340h0l-15-30.72a1,1,0,0,0-1.85,0L106.9,339a17.54,17.54,0,0,0-2.28,9,17.69,17.69,0,1,0,33.6-8Z" transform="translate(-0.24 0.56)"/><line class="cls-17" x1="121.82" y1="381.14" x2="121.82" y2="334.48"/><line class="cls-17" x1="121.82" y1="349.25" x2="130.69" y2="341.23"/><line class="cls-17" x1="113.75" y1="349.04" x2="121.82" y2="357.28"/><path class="cls-5" d="M400,340h0l-15-30.72a1,1,0,0,0-1.85,0L368.72,339a17.54,17.54,0,0,0-2.28,9,17.69,17.69,0,1,0,33.6-8Z" transform="translate(-0.24 0.56)"/><line class="cls-17" x1="383.64" y1="381.14" x2="383.64" y2="334.48"/><line class="cls-17" x1="383.64" y1="349.25" x2="392.51" y2="341.23"/><line class="cls-17" x1="375.57" y1="349.04" x2="383.64" y2="357.28"/><line class="cls-13" x1="51.78" y1="380.11" x2="450.22" y2="380.11"/><ellipse class="cls-3" cx="247.46" cy="431.83" rx="89.46" ry="2"/><polygon class="cls-18" points="289.63 421.93 284.13 431.85 299.11 425.55 296.39 419.09 289.63 421.93"/><polygon class="cls-19" points="284.87 340.84 277.34 378 288.92 422.29 299.63 417.9 289.24 377.07 296.71 363.17 294.76 340.64 284.87 340.84"/><polygon class="cls-18" points="293.2 369.7 292.41 354.42 290.15 353.08 292.78 370.49 293.2 369.7"/><polygon class="cls-18" points="294.69 398.5 295.79 419.78 294.1 420.27 294.69 398.5"/><polygon class="cls-18" points="297.52 425.38 288.91 432.77 305.15 432.06 304.85 425.06 297.52 425.38"/><polygon class="cls-19" points="291.62 339.23 296.09 425.47 305.96 425.47 308.59 340.36 291.62 339.23"/><path class="cls-1" d="M284.48,316.56l-2.41,15.16a6.33,6.33,0,0,0-.09,1.84l.65,19,5-24.57Z" transform="translate(-0.24 0.56)"/><path class="cls-20" d="M287.48,303.23s-4.69,3.61-5.34,18.68l6.75,2.28Z" transform="translate(-0.24 0.56)"/><polygon class="cls-18" points="285.64 323.74 285.87 314.27 284.25 323.26 285.64 323.74"/><path class="cls-20" d="M300.72,297.46l9.6,6.21a3.44,3.44,0,0,1,1.42,3.08l-2.92,33.05-23.71.48,1.59-35.15a3.05,3.05,0,0,1,1.3-2.37l7-4.9Z" transform="translate(-0.24 0.56)"/><path class="cls-1" d="M315.39,316.56l3.53,20.5a4,4,0,0,1-.63,2.93l-11.23,16.7-5-5s8.56-13.37,8.55-13.84-4.83-17.11-4.83-17.11Z" transform="translate(-0.24 0.56)"/><path class="cls-20" d="M310.32,303.67s3.91,2.32,7.63,16.66l-12,2.95-3.83-9.81Z" transform="translate(-0.24 0.56)"/><polygon class="cls-18" points="306.24 323.62 302.88 314.86 304.56 323.09 306.24 323.62"/><path class="cls-1" d="M302.1,299l-.1-5.81-8.46-2.57.07,7.45a4.62,4.62,0,0,0,.51,3.42,2.8,2.8,0,0,0,2.47,1C302.35,302.44,302.1,299,302.1,299Z" transform="translate(-0.24 0.56)"/><path class="cls-1" d="M290.48,294.77l11.53-.12.88-14.6a4.91,4.91,0,0,0-5-4.86l-5.91,0A5.12,5.12,0,0,0,287,280.4l.11,11A3.38,3.38,0,0,0,290.48,294.77Z" transform="translate(-0.24 0.56)"/><g class="cls-21"><path class="cls-18" d="M302.51,290.47s-4.32-1.48-4.27-4.48l-3,.07,0-2.21s-1.92-.63-1.67-4.25l-7.18.08,1.74-5.08,7.84-.66,6.47,1.77a1.43,1.43,0,0,1,.79.55l2.68,3.76a1.44,1.44,0,0,1,.21,1.22l-1.58,5.44Z" transform="translate(-0.24 0.56)"/></g><path class="cls-1" d="M288.07,283.74l-2.38,3.49a.52.52,0,0,0,.44.82l2.38,0Z" transform="translate(-0.24 0.56)"/><path class="cls-1" d="M296.55,286.14a2.22,2.22,0,1,0,2.2-2.24A2.22,2.22,0,0,0,296.55,286.14Z" transform="translate(-0.24 0.56)"/><path class="cls-18" d="M293.58,294.74a6.8,6.8,0,0,0,3.35-2.21l-3.32,5.33Z" transform="translate(-0.24 0.56)"/><path class="cls-18" d="M293.5,279.6l-6.49.07-.18-.08a2.3,2.3,0,0,1,1.11-4.29l7.44-.1Z" transform="translate(-0.24 0.56)"/><path class="cls-1" d="M187.17,422.17s2.77-6.4,3.27-9l-6.53-2.61-3.22,8.6Z" transform="translate(-0.24 0.56)"/><polygon class="cls-18" points="186.93 422.73 191.97 432.55 177.6 425.94 180.46 419.75 186.93 422.73"/><path class="cls-20" d="M191.93,344.7a23.87,23.87,0,0,0,0,19.38s-5,30.86-12.27,48.58l13.44,3.9s13.45-36.42,19.06-70.91Z" transform="translate(-0.24 0.56)"/><path class="cls-1" d="M237.47,421.53s-1.45-6.81-2.54-9.19L228.09,414l2.37,8.87Z" transform="translate(-0.24 0.56)"/><path class="cls-20" d="M215.92,343.71s15.93,38.83,21.84,71.43l-12.92,2.55A461.16,461.16,0,0,0,205,361.13V343.71Z" transform="translate(-0.24 0.56)"/><polygon class="cls-18" points="237.23 422.09 247.03 427.18 231.49 430.13 230.22 423.42 237.23 422.09"/><polygon class="cls-18" points="207.44 368.15 211 351.36 209.68 373.74 207.44 368.15"/><path class="cls-1" d="M232,305l-.63-3.31a3,3,0,0,1,1.2-3.09c.93-.64,2.12-1.21,3.06-.86Z" transform="translate(-0.24 0.56)"/><path class="cls-1" d="M237.16,309.18c.15-.36,1-1.92,1.57-3a5.15,5.15,0,0,0,.65-2.6c0-2-.35-5.47-2.29-5.8l-5.16,6.34.44,3.92Z" transform="translate(-0.24 0.56)"/><polygon class="cls-1" points="229.81 312.5 232.07 307.53 236.92 309.74 233.36 316.59 229.81 312.5"/><path class="cls-19" d="M210.29,304.4s4.33.6,6.55,6.39L225,328.67a4.78,4.78,0,0,1-1.79,6h0a4.78,4.78,0,0,1-6.89-2l-7.66-16Z" transform="translate(-0.24 0.56)"/><polygon class="cls-19" points="229.69 311.1 218.28 327.45 224.18 334.14 236.92 315.64 229.69 311.1"/><path class="cls-22" d="M237.51,291.18l-6.28,13a.35.35,0,0,0,.29.5l3.5.25a1,1,0,0,0,.95-.55l6-12.55a.44.44,0,0,0-.36-.63L237.9,291A.38.38,0,0,0,237.51,291.18Z" transform="translate(-0.24 0.56)"/><path class="cls-9" d="M237.51,291.18l-6.09,12.68,3.55.25,6.12-12.9-3.18-.25A.39.39,0,0,0,237.51,291.18Z" transform="translate(-0.24 0.56)"/><polygon class="cls-18" points="215.82 318.83 216.08 333.28 212.81 326.45 215.82 318.83"/><path class="cls-19" d="M213.93,311.1s-.56-7-5.27-7a1.91,1.91,0,0,0-1.94,1.51L204,304.1,195.42,308s-3.9,12.76-3.49,36.68c0,0,15.57,2.68,24-1l-1.11-17.66S218.51,316,213.93,311.1Z" transform="translate(-0.24 0.56)"/><polygon class="cls-18" points="192.37 323.94 194.54 322.18 191.93 331.66 192.37 323.94"/><path class="cls-1" d="M198.71,352.4a5,5,0,0,1-6.86-7.3c1.78-1.68,4.76-1.4,6.66.61A4.76,4.76,0,0,1,198.71,352.4Z" transform="translate(-0.24 0.56)"/><path class="cls-1" d="M195,345.12l-4.19-5.45-3.37,2.7,4.25,5.86Z" transform="translate(-0.24 0.56)"/><path class="cls-19" d="M194.23,308.67a143.7,143.7,0,0,0-18.08,15,5.09,5.09,0,0,0-.8,6h0a5.08,5.08,0,0,0,7.61,1.47L200.53,317a5.2,5.2,0,0,0,.51-7.61h0A5.2,5.2,0,0,0,194.23,308.67Z" transform="translate(-0.24 0.56)"/><polygon class="cls-19" points="194.86 342.63 188.22 347.8 175.12 330.28 183.74 323.68 194.86 342.63"/><path class="cls-1" d="M202,304.78l0-5.94,8-1.88-.06,7c0,2.08.11,2.55-.48,3.19a3.06,3.06,0,0,1-2.3.92C201.73,308,202,304.78,202,304.78Z" transform="translate(-0.24 0.56)"/><path class="cls-1" d="M211.24,300.78l-9.19-.09-.82-13.63a4.58,4.58,0,0,1,4.63-4.53l5.51,0a4.78,4.78,0,0,1,4.72,4.82l-.09,8.72A4.71,4.71,0,0,1,211.24,300.78Z" transform="translate(-0.24 0.56)"/><path class="cls-1" d="M215.05,290.47l2.07,3.25a.49.49,0,0,1-.41.77l-2.07,0Z" transform="translate(-0.24 0.56)"/><path class="cls-18" d="M209.91,300.77a6.4,6.4,0,0,1-3.12-2.07l3.09,5Z" transform="translate(-0.24 0.56)"/><path class="cls-18" d="M205,292.51s9.18-1,10.73-6.67a3.27,3.27,0,0,0-.56-2.6c-1.42-2.08-6.79-4.55-12.62-1.49-8.32,4.37-2.89,13.26-.58,15.21s2.4-5,2.4-5Z" transform="translate(-0.24 0.56)"/><path class="cls-1" d="M207.47,291.73a2.48,2.48,0,1,1-2.45-2.5A2.47,2.47,0,0,1,207.47,291.73Z" transform="translate(-0.24 0.56)"/><path class="cls-18" d="M201.22,284.13a6.34,6.34,0,1,1-4.62-7.35A6.15,6.15,0,0,1,201.22,284.13Z" transform="translate(-0.24 0.56)"/><circle class="cls-4" cx="402.38" cy="92.6" r="25.39" transform="translate(219.89 463.66) rotate(-76.77)"/><path class="cls-20" d="M407.75,83.49c-4.92,0-5.32,3-5.32,3s-.33-3-5.26-3.07-6.72,5.58-5.49,9c1,2.62,6.7,8.37,9.28,10.87a1.85,1.85,0,0,0,2.55,0c2.64-2.44,8.51-8.06,9.52-10.65C414.35,89.22,412.68,83.55,407.75,83.49Z" transform="translate(-0.24 0.56)"/><rect class="cls-4" x="35.67" y="226.44" width="88.02" height="41.05" rx="6.34"/><polyline class="cls-4" points="109.21 261.61 109.21 279.13 91.88 261.79 109.21 261.79"/><path class="cls-23" d="M53.51,251.6l1.46,3a.2.2,0,0,0,.13.09l3.28.48a.17.17,0,0,1,.09.29l-2.37,2.31a.17.17,0,0,0-.05.15l.56,3.26a.16.16,0,0,1-.24.18l-2.93-1.54a.15.15,0,0,0-.16,0l-2.93,1.54a.17.17,0,0,1-.25-.18l.56-3.26a.17.17,0,0,0,0-.15l-2.37-2.31a.17.17,0,0,1,.1-.29l3.27-.48a.16.16,0,0,0,.13-.09l1.47-3A.16.16,0,0,1,53.51,251.6Z" transform="translate(-0.24 0.56)"/><path class="cls-23" d="M66.79,251.6l1.47,3a.16.16,0,0,0,.13.09l3.27.48a.17.17,0,0,1,.1.29l-2.38,2.31a.16.16,0,0,0,0,.15l.56,3.26a.17.17,0,0,1-.25.18l-2.93-1.54a.15.15,0,0,0-.16,0l-2.93,1.54a.16.16,0,0,1-.24-.18l.56-3.26a.2.2,0,0,0-.05-.15l-2.37-2.31a.17.17,0,0,1,.09-.29l3.28-.48a.16.16,0,0,0,.12-.09l1.47-3A.16.16,0,0,1,66.79,251.6Z" transform="translate(-0.24 0.56)"/><path class="cls-23" d="M80.08,251.6l1.46,3a.18.18,0,0,0,.13.09l3.27.48a.17.17,0,0,1,.1.29l-2.37,2.31a.17.17,0,0,0,0,.15l.56,3.26a.17.17,0,0,1-.25.18L80,259.79a.14.14,0,0,0-.15,0l-2.94,1.54a.16.16,0,0,1-.24-.18l.56-3.26a.17.17,0,0,0,0-.15l-2.37-2.31a.17.17,0,0,1,.09-.29l3.28-.48a.2.2,0,0,0,.13-.09l1.46-3A.17.17,0,0,1,80.08,251.6Z" transform="translate(-0.24 0.56)"/><path class="cls-24" d="M93.36,251.6l1.46,3a.2.2,0,0,0,.13.09l3.28.48a.17.17,0,0,1,.09.29L96,257.74a.17.17,0,0,0,0,.15l.56,3.26a.16.16,0,0,1-.24.18l-2.93-1.54a.15.15,0,0,0-.16,0l-2.93,1.54a.17.17,0,0,1-.25-.18l.56-3.26a.17.17,0,0,0-.05-.15l-2.37-2.31a.17.17,0,0,1,.1-.29l3.27-.48a.16.16,0,0,0,.13-.09l1.47-3A.16.16,0,0,1,93.36,251.6Z" transform="translate(-0.24 0.56)"/><path class="cls-24" d="M106.64,251.6l1.47,3a.16.16,0,0,0,.13.09l3.27.48a.17.17,0,0,1,.1.29l-2.38,2.31a.16.16,0,0,0,0,.15l.56,3.26a.17.17,0,0,1-.25.18l-2.93-1.54a.15.15,0,0,0-.16,0l-2.93,1.54a.16.16,0,0,1-.24-.18l.55-3.26a.16.16,0,0,0,0-.15l-2.37-2.31a.17.17,0,0,1,.09-.29l3.28-.48a.16.16,0,0,0,.12-.09l1.47-3A.16.16,0,0,1,106.64,251.6Z" transform="translate(-0.24 0.56)"/><rect class="cls-24" x="45.92" y="246.22" width="67.53" height="1.49"/><rect class="cls-24" x="45.92" y="238.87" width="36.39" height="1.49"/><rect class="cls-4" x="405.02" y="247.96" width="39.27" height="52.72" rx="9.33"/><polyline class="cls-4" points="415.06 288.19 397.01 288.19 414.87 270.33 414.87 288.19"/><circle class="cls-9" cx="424.22" cy="269.37" r="5.06"/><path class="cls-24" d="M434,269.54a9.55,9.55,0,0,0-19.1,0,9.42,9.42,0,0,0,1,4.33h0l.07.14a2,2,0,0,1,.11.2l8.33,15.06,8.35-15.09a1.09,1.09,0,0,1,.08-.15l0-.07h0A9.39,9.39,0,0,0,434,269.54Zm-9.55,3.08a3.82,3.82,0,1,1,3.82-3.81A3.82,3.82,0,0,1,424.46,272.62Z" transform="translate(-0.24 0.56)"/></g></svg>