<svg id="Слой_2" data-name="Слой 2" xmlns="http://www.w3.org/2000/svg" viewBox="0 0 3800 2000"><defs><style>.cls-1{fill:#fff;}.cls-2{fill:#ebf3fa;}.cls-3{fill:#e49963;}.cls-4{fill:#c65447;}.cls-5{fill:#ffb27d;}.cls-6{fill:#365da4;}.cls-7{fill:#466aa5;}.cls-8{fill:#b74b42;}.cls-9{fill:#e8945b;}.cls-10{fill:#f1a34f;}.cls-11{fill:#e58638;}.cls-12{fill:#ad7041;}.cls-13{fill:#415da5;}.cls-14{fill:#355493;}.cls-15{fill:#b84c42;}.cls-16{fill:#2b478b;}.cls-17{fill:#b64c41;}.cls-18{fill:#a53d38;}.cls-19{fill:#699ff0;}.cls-20{fill:#5f9aa8;}.cls-21{fill:#233862;}.cls-22{fill:#4a75cb;}.cls-23{fill:#283250;}.cls-24{fill:#deedff;}.cls-25{fill:#739af0;}.cls-26{fill:#82b378;}.cls-27{fill:#a8d29f;}.cls-28{fill:#ffb973;}.cls-29,.cls-41{fill:#d86713;}.cls-30{fill:#163560;}.cls-31{fill:#e37970;}.cls-32{fill:#d68d5d;}.cls-33{fill:#80bdcc;}.cls-34{fill:#c45446;}.cls-35,.cls-44{fill:#afcdfb;}.cls-35{opacity:0.9;}.cls-36{fill:#aa413e;}.cls-37{fill:#d9935c;}.cls-38{fill:#cb8757;}.cls-39{fill:#e7f0fd;}.cls-40{fill:#da935b;}.cls-41{opacity:0.4;}.cls-42{fill:#ab7041;}.cls-43{fill:#9c5f33;}</style></defs><title>4420</title><rect class="cls-1" width="3800" height="2000"/><path class="cls-2" d="M3257.24,751.79c-175.3-54.89-236.46-823.35-1015.12-439.12-309.66,152.8-755.54-32.11-1182.55,69C667.42,474.45,658.41,742.19,708,838.58c54.18,105.32-161.87,231.25-383.13,317.73C-22.22,1292,233,1768.72,560.89,1771s2736.77-4.54,2736.77-4.54S3953.18,969.71,3257.24,751.79Z"/><path class="cls-3" d="M1190.92,1562.06c0,3.94-2,6.65-5.25,8.46l-.05,0c-6.1,3.36-16.8,3.7-28.45,3.19-1.49-.06-2.83-.1-4-.1h-1.65c-11.53.28-10.31,3.73-32.21,5.61-25,2.13-34.17-5.51-35.65-9-1.23-3,9.48-6.3,21.45-10.13l1.75-.56c1.59-.5,3.19-1,4.79-1.55,14.25-4.74,28.28-10.36,31.78-24.78,3.72-15.3-7.44-58-7.44-58l39.57-4.27s3.81,44.64,6.3,58.55c1.34,7.43,4.7,13.33,6.67,19.69.14.45.28.9.4,1.34A43.92,43.92,0,0,1,1190.92,1562.06Z"/><path class="cls-4" d="M1190.92,1562.06c0,3.94-2,6.65-5.25,8.46l-.05,0c-6.49,3-17,3.44-28.43,3.12-1.49,0-2.83-.05-4,0h-1.65c-11.53.28-10.31,3.73-32.21,5.61-25,2.13-34.17-5.51-35.65-9-1.23-3,9.48-6.3,21.45-10.13a74,74,0,0,0,38.31,3.27c16.66-3.14,33.21-11.42,45.11-14.2.14.45.28.9.4,1.34A43.92,43.92,0,0,1,1190.92,1562.06Z"/><path class="cls-3" d="M934.16,1511.55c-2.2,11-17.87,9.16-35.37,4.88s-13.34.81-38.24-2-32.46-12-33.22-15.75c-.68-3.28,11.63-4.44,24.83-6l5-.6c14.9-1.87,25.81-11.49,39.35-19.38,12.83-7.49,32-38,32-38l34.16,2.71s-17.92,27.22-24.86,39.06c-4.08,7-3.86,16.17-3.35,23.28A44,44,0,0,1,934.16,1511.55Z"/><path class="cls-4" d="M898.79,1516.43c-17.5-4.27-13.34.81-38.24-2s-32.46-12-33.22-15.75c-.68-3.28,11.63-4.44,24.83-6l.12.25A70.26,70.26,0,0,0,888,1504.11c16.9.41,34.8-4.43,46.47-4.24a44,44,0,0,1-.26,11.68C932,1522.54,916.29,1520.71,898.79,1516.43Z"/><path class="cls-5" d="M1010.16,1009.85s-8.14-19.93-17.09-20.75-37.44-5.29-39.47-1.22,0,18.72,6.1,24,43.95,13.83,43.95,13.83Z"/><path class="cls-6" d="M1065.06,1293.14l73.62,198.11a67.22,67.22,0,0,0,22.15-2c10-2.87,21.41-10.42,21.41-10.42S1164,1288.57,1130.5,1249,1065.06,1293.14,1065.06,1293.14Z"/><path class="cls-7" d="M1356.23,1213s-211.53-71.53-258.71-56.31-188.82,297-188.82,297,3.2,4.26,11.92,7.53c8.12,3,27.77,2.85,27.77,2.85s127.83-109.57,143.05-141.53,21.3-62.4,36.52-59.35,196.31,74.57,237.4,32,30.35-98,30.35-98Z"/><path class="cls-8" d="M1227,880.24c-3.37-7-7.15-19.36-9-41.44.29,2.19,4.09,30,14.8,45.81,44,28.88,128.32,125.32,126.65,143.6,0,0,29.7-50.38,30.21-50.68,0,0,54.79-69.67-10.15-109.58-33-20.28-32.83-46.31-31.45-68.92s-9-120-75.11-94.48c0,0-10.61-4.72-15.36-4,0,0,3.88.74,5.85,2.78-7.66-.45-18.62.11-27.76,5.31C1211.4,722.4,1189.71,846,1227,880.24Z"/><path class="cls-5" d="M1235.37,886.05c-.22.1,21.24,11.24,37.38,6.82,15.18-4.14,25.11-23.83,24.9-23.87-6.43-1.28-8.29-10.11-8.15-48.09l-2.91.58-48.88,9.67s1.11,15.39,1.15,29.88C1238.89,873.21,1238.15,884.75,1235.37,886.05Z"/><path class="cls-9" d="M1237.71,831.16s1.11,15.39,1.15,29.88c27.35-.77,41.81-25.72,47.73-39.55Z"/><path class="cls-8" d="M1291.64,816.16s14.33-22.64,17.77-42c2.46-13.83-4.58-65.08-56.08-57.69a70,70,0,0,0-29,11C1213.13,735,1197,751.28,1215,796l4.69,15.11Z"/><path class="cls-5" d="M1228.58,844.89s64.71,1.06,64.76-39.25,8.42-67.32-32.89-69.71-49.36,13-52.65,26.44S1211.74,843.57,1228.58,844.89Z"/><path class="cls-8" d="M1289.69,743.45s-44.21-30.23-58.19-9.33c-4.24-3.63-11.79-6.27-21.78,5.84-15,18.18-1.65,50.33-1.65,50.33,6.16.72,7.61-20.41,10.84-30.68,2.43-7.74,10.55-15.65,14.4-19.07,5.64,12.73,21.17,43.19,42.57,48.69,27.2,7,39-.29,39-.29S1294,772.37,1289.69,743.45Z"/><path class="cls-10" d="M1379.47,1060.15c6.39-26.77-15.33-78.7-38-121.7-20.57-39-41.92-70.59-43.83-69.45-54.24,32.19-59.14,5.43-59.14,5.43S1189.24,881,1175.29,905c-19.3,33.21-40.31,132.86-61,131.39-9.48-.68-104.85-36.53-104.85-36.53s-15.89,14.89-12.84,33.15c0,0,47.08,31.53,86.91,51.65,21.06,10.64,40.09,18.09,49,16,18.14-4.27,46.48-46.32,61.79-71.08l.1-.17c19.55,110.62-7,135.81,6.42,147.48,14.21,12.32,34.5-5.87,79.14,13.48,29.28,12.7,69.92,31.07,97.27,34.27,14.35,1.68,25-.82,28.54-10.51C1416,1186,1367.3,1111.17,1379.47,1060.15Z"/><path class="cls-1" d="M1243,820.45s-1.2,5.12-13.94,4.33c0,0-10.7-.66-10.37-6.29C1218.65,818.49,1229,814.49,1243,820.45Z"/><path class="cls-11" d="M1405.85,1214.1c-3.49,9.69-14.19,12.19-28.54,10.51-18.93-8.25-100.72-39.94-99.8-61.41,1.36-31.79,15.72-32.8,5.58-72-8.15-31.51,47.23-96.28,59.29-109,22.66,43,43.48,51.22,37.09,78C1367.3,1111.17,1416,1186,1405.85,1214.1Z"/><path class="cls-11" d="M1194.38,1029.55c-15.31,24.76-43.65,66.81-61.79,71.08-8.95,2.11-28-5.34-49-16,15.37,4,30.3,3.86,44.81,2.46,15.73-1.53,20.29-20.8,45.15-49.72C1189.63,1018.64,1193.59,1023.36,1194.38,1029.55Z"/><path class="cls-5" d="M1270.15,1090.4s-13.7-10.65-26.63-8.11-19.28,11.41-18.77,15.47,7.35,15.47,17.25,16.49,38-6.09,38-6.09Z"/><path class="cls-10" d="M1297.65,869s52.74,3.25,71,28.72c25.7,35.85,70.35,182.2,58.17,215.68l-160.47-.67s-3.89-18.18,1.52-27,93.34-23,97.4-27-50.73-79.14-50.73-91.32S1297.65,869,1297.65,869Z"/><path class="cls-5" d="M1504.6,1099.25s-14.65-4.87-21.73-3.41-29,11.72-29.53,13.91a8,8,0,0,0,0,3.78h51.26s11.46-2.23,13.41-9S1504.6,1099.25,1504.6,1099.25Z"/><path class="cls-12" d="M1695.84,1745.12c-.39,4.2-2.72,6.9-6.41,8.51l0,0c-6.83,3-18.28,2.31-30.65.65-1.58-.21-3-.38-4.28-.5l-1-.08-.77-.06c-12.32-.81-11.35,3-34.89,2.87-26.83-.14-35.91-9.18-37.14-13-1-3.27,10.71-5.8,23.85-8.73.64-.13,1.27-.28,1.92-.42l5.25-1.19c15.66-3.68,31.17-8.31,36.29-23.36,5.44-16,4.16-63.3,4.16-63.3h47.52s-12.48,52.3-11.17,67.38c.71,8,4.56,10.33,6,17.31.11.49.21,1,.29,1.47C1695.52,1736.73,1696.24,1740.91,1695.84,1745.12Z"/><path class="cls-13" d="M1751.14,1233.38c-4,22.52-9.73,45.78-14.7,70-8,38.91-14,80.24-7.84,124.75a158,158,0,0,1,1.31,18.85c1.19,78.66-34,221.22-34,221.22s-9.55,4.12-25.55,3.33c-8.24-.41-20.88-5.72-20.88-5.72s-3.32-88.39-3.52-207.26c-.15-86.16-17.07-199.61-20.48-266.27-2.07-40.34,2.42-94.09,2.42-94.09s70.06-56.34,95.23-27.51C1748,1099.14,1766.15,1149.16,1751.14,1233.38Z"/><path class="cls-14" d="M1728.6,1428.11a158,158,0,0,1,1.31,18.85c-52.47-76-64.08-241.8-64.08-241.8l57.63,28s6.32,31.08,13,70.23C1728.45,1342.27,1722.43,1383.6,1728.6,1428.11Z"/><path class="cls-12" d="M1847.43,1745.12c-.39,4.2-2.72,6.9-6.41,8.51l-.06,0c-6.82,3-18.27,2.31-30.64.65-1.58-.21-3-.38-4.29-.5l-1-.08-.77-.06c-12.32-.81-11.35,3-34.89,2.87-26.83-.14-35.91-9.18-37.14-13-1-3.27,10.71-5.8,23.85-8.73l1.91-.42,5.26-1.19c15.66-3.68,31.17-8.31,36.29-23.36,5.44-16-2.33-62.57-2.33-62.57l44-3.68s-2.73,53.12-1.42,68.19c.71,8,4.8,12.47,6.28,19.45.11.49.21,1,.29,1.47C1847.11,1736.73,1847.82,1740.91,1847.43,1745.12Z"/><path class="cls-13" d="M1841.23,1672.2s-11.32,5.36-19.47,7-25.07-1.56-25.07-1.56c-3.06-34.23-10.15-87.75-23.94-148.15-15.69-68.76-39-150-71.62-227-7-16.44-35.63-94.23-40.5-113.86-14.72-59.31.06-52.92.06-52.92l128.65-15.1s15.84,8.15,23.14,91.91c2.19,25.08,2.46,133.38,5.75,153.92,3.12,19.44,6.77,35.6,11,46.11C1853.18,1471.23,1841.23,1672.2,1841.23,1672.2Z"/><path class="cls-15" d="M1847.43,1745.12c-.39,4.2-2.72,6.9-6.41,8.51l-.06,0c-7.21,2.58-18.48,2-30.61.57-1.59-.18-3-.32-4.32-.42l-1-.08-.77-.06c-12.32-.81-11.35,3-34.89,2.87-26.83-.14-35.91-9.18-37.14-13-1-3.27,10.71-5.8,23.85-8.73a79.19,79.19,0,0,0,40.54,7.19c18.06-1.73,36.51-9,49.47-10.77.11.49.21,1,.29,1.47C1847.11,1736.73,1847.82,1740.91,1847.43,1745.12Z"/><path class="cls-15" d="M1695.84,1745.12c-.39,4.2-2.72,6.9-6.41,8.51l0,0c-7.22,2.58-18.49,2-30.62.57-1.59-.18-3-.32-4.31-.42l-1-.08-.77-.06c-12.32-.81-11.35,3-34.89,2.87-26.83-.14-35.91-9.18-37.14-13-1-3.27,10.71-5.8,23.85-8.73A79.22,79.22,0,0,0,1645,1742c18.06-1.73,36.51-9,49.47-10.77.11.49.21,1,.29,1.47C1695.52,1736.73,1696.24,1740.91,1695.84,1745.12Z"/><path class="cls-16" d="M1644.38,735.42c-4.35-35.49,6.74-92.27,77.57-83.2s93.15,78.69,78.86,109.64,20.57,38.41,31.51,71.69c9.39,28.6,12.67,64.1,27.88,80,49,51.37-47.08,130.36-105,113.7-105.54-30.34-119.13-34.86-115.38-117.78,1.92-42.49,35-59,14-71.24C1603.1,808.57,1654.21,815.72,1644.38,735.42Z"/><path class="cls-5" d="M1748.46,828.35,1729,878.76l-42.16,2.06-21-31.44c23.82-18.06,22.81-52.62,21.64-64.69-.27-2.72-.53-4.29-.53-4.29l52.7-16c.63,13.94,1.41,24.83,2.25,33.35C1744.84,827.64,1748.46,828.35,1748.46,828.35Z"/><path class="cls-5" d="M1665.67,826.54c2.71,0,48.71-9.36,126.39,10.51,0,0-42.55,194.91-28.09,231.64a388.18,388.18,0,0,1,19.94,69.34l-156.78,2s2.19-126.1-5-170.72S1665.67,826.54,1665.67,826.54Z"/><path class="cls-10" d="M1781.26,1043.94c2.29,25.8,26.4,84.76,21.18,97.32-5.46,13.19-13.06,19.87-29.67,23.68-11.45,2.64-27.18,3.91-49.45,5-47.23,2.34-97.84-3.59-104.73-26-3.3-10.78-2-52.48-.28-71.73,3.61-39.84-4-97-5.08-134-.91-30.85,17.7-101.06,17.7-101.06s8.4-5.3,34.74-10.6c0,0,2.77,36.46,21.8,39.6,32.91,5.44,59.43-24.71,67.17-36.84,0,0,37.8,9.53,48.89,22.18,10.5,12-3.87,100.67-7.06,109.17-2.76,7.31-5.37,14.43-7.64,21.59C1782.82,1001.13,1779.15,1020.32,1781.26,1043.94Z"/><path class="cls-5" d="M1915.83,1099.37s14.65-4.82,21.72-3.37,29,11.61,29.53,13.79a7.85,7.85,0,0,1,0,3.74h-51.25s-11.46-2.21-13.42-8.9S1915.83,1099.37,1915.83,1099.37Z"/><path class="cls-9" d="M1741.89,801c-19.23-12.89-43.4-13.52-54.42-13-.27-2.72-.53-4.3-.53-4.3l52.7-16C1740.27,781.63,1741.05,792.52,1741.89,801Z"/><path class="cls-5" d="M1673.18,784s63.09,12.67,70.37-26.74,20.34-64.32-19.64-74.08-50.6,3.84-56.23,16.4S1657,779.66,1673.18,784Z"/><path class="cls-16" d="M1755.77,685.78c-10.68-12-26.08-14.35-37.31-14.16,6.77-8.2-20.45-26.18-51.57,4.49-13.41,13.21-11.38,39.18-4.2,54.25,0,0,11-32.29,31.1-39.34a43.76,43.76,0,0,0,12.61-7.29c2.44,6.14,7.36,14.83,17.25,25.64,20.75,22.69,16.71,68.55,16.71,68.55S1774.42,706.76,1755.77,685.78Z"/><path class="cls-1" d="M1692.83,764.59s-1.68,4.67-13.56,2.55c0,0-10-1.78-9-7C1670.22,760.11,1680.39,757.47,1692.83,764.59Z"/><path class="cls-17" d="M1865.92,1005c-23.86-92.1-37-144.68-56.51-160.6-17.29-14.07-54.58-15.36-54.58-15.36a189.92,189.92,0,0,0,1.3,33.2l-45.87,87.42s-23.51,46.5-31.86,97.37c-6.31-50.52-12.57-97.37-12.57-97.37s-5.92-29.88-7.78-57.24c5.53-21.33,5-43.6,7.55-65.89l-2.89.16c-9.06.64-37.3,3.51-51.7,15.33-19.55,16.06-23.94,86.56-56.51,162,0,0-39.47,66.36-52,92.69a22.42,22.42,0,0,0,7.06,6.31,37,37,0,0,0,10.32,3.67s71.2-70.11,75.87-81.19c1.54-3.65,10.16-16.43,20.85-35.24h0s2.84,100.17-3.38,143.4a22.4,22.4,0,0,0,11.12,22.73c44,24.84,175.7,92.5,200.21,26.79,2.75-7.37-45.39-132.51-38.8-159.6,2.1-8.67,4.89-28.43,7.7-51.29,15.08,28.92,29.26,49.24,31.28,54,4.68,11,75.87,80.48,75.87,80.48a37.18,37.18,0,0,0,10.32-3.64,22.28,22.28,0,0,0,7.06-6.25C1905.39,1070.79,1865.92,1005,1865.92,1005Z"/><path class="cls-18" d="M1752.35,828.79l-42.09,120.88,42.08-39.8-3.18-12.37s9.67.86,13.6-1.67,13.06-64.34,13.06-64.34-8.56-1.43-11.4-1.76C1761.39,829.38,1752.35,828.79,1752.35,828.79Z"/><path class="cls-18" d="M1665.6,826.54s-8.87,95.55.23,123.13c0,0-26-41.25-21.17-49.79l9.44-6.22s-18.22-2.37-14.81-12.84,18.06-52.93,18.06-52.93Z"/><polygon class="cls-19" points="736.03 1772.15 2189.67 1772.15 2189.67 1442.55 736.03 1439.27 736.03 1772.15"/><rect class="cls-19" x="736.03" y="1175.66" width="1453.63" height="86.19"/><rect class="cls-7" x="607.22" y="1113.53" width="1673.17" height="62.13" rx="27.75"/><path class="cls-20" d="M933.19,1113.77c-.15.09-.3.18-.46.26l.14-.26Z"/><path class="cls-21" d="M542,1768.5H437.36c-1.44-2.43-2.25-6.41-2.66-10.88-1.06-11.48.46-26.18.46-26.18s34.74-29,40.06-7.47,34.22,30.66,50.61,33C537.28,1758.55,540.86,1764.85,542,1768.5Z"/><path class="cls-21" d="M450,1768.5H342.2c-4.43-9.82-1.59-37.06-1.59-37.06s34.74-29,40.05-7.47,34.22,30.66,50.62,33a30.43,30.43,0,0,1,3.42.68A24.8,24.8,0,0,1,450,1768.5Z"/><path class="cls-16" d="M389.77,1187.63s.09,3.89.24,10.89c1,45.12,4.83,219.56,8.49,316.82.15,3.54.28,7,.41,10.29.07,1.76.14,3.53.21,5.27,2.19,47,8.57,93.06,15,129.88,8.22,47,16.57,78.94,16.57,78.94,31.32,6.34,51.62-5.57,51.62-5.57s8.45-72.88,11.66-117c1.06-14.31,6.21-63.14,12.68-122.55,5-45.93,10.82-98.2,16.15-145.73.28-2.54.55-5.07.84-7.56,8.59-76.85,15.71-139.45,15.71-139.45L484,1196.6Z"/><path class="cls-21" d="M414.13,1660.78l92.53-166.17c5-45.93,10.82-98.2,16.15-145.73.28-2.54.55-5.07.84-7.56,8.59-76.85,15.71-139.45,15.71-139.45L484,1196.6l-94,1.92Z"/><path class="cls-16" d="M529.12,1202.29s-51.77,255.92-94,379.44-42.71,157.83-42.71,157.83-38.71,8.4-55.76-1.35c0,0-9.75-234.15,15.78-296.34,16.88-41.13,29.8-128.68,25.41-160.21s-8.49-94.76-8.49-94.76Z"/><path class="cls-5" d="M468.06,852.86,417,838.45s8.68-21.23,11.69-43.37c1.67-12.29,1.6-24.85-2.67-34.21-.26-.59-.55-1.16-.84-1.72-1.95-3.64-.76-5.31,1.83-5.71,4.64-.75,13.77,2.51,17.63,5.73,5.87,4.89,34.11,19.23,35.58,20l.06,0s0,.21.1.61v0c.16,1,.48,3.08.78,6C482.55,799.44,483.77,831.14,468.06,852.86Z"/><path class="cls-19" d="M383.16,1216c12.24,8.67,31.52,11.8,52.76,11.47,24.81-.4,52.26-5.52,74.2-12.09,11.81-3.52,22-7.46,29.37-11.3,32.78-17.1,28.13-39.85,27.34-125-.79-86.94-54.3-199.32-63.93-218.14-17.15-33.49-94.09-21.13-94.09-21.13-16.88,8.09-22.88,35.06-24.52,70.3-1.83,39.14,1.72,88.49,1.72,133.49,0,37.2-7,70.09-12.13,97.37C367.26,1176.33,363.85,1202.28,383.16,1216Z"/><path class="cls-22" d="M373.88,1140.91c14.8,31.2,44,66.31,62,86.53,24.81-.4,52.26-5.52,74.2-12.09,9.24-22.1,13.28-59,4.75-119.92C508.36,1049,461,862.16,461,862.16c-38.28-5-62.09,15.86-76.66,47.89-1.83,39.14,1.72,88.49,1.72,133.49C386,1080.74,379,1113.63,373.88,1140.91Z"/><path class="cls-22" d="M552.62,1289.38H517.86v-10.81a32.56,32.56,0,0,0-32.52-32.52H456.57a32.56,32.56,0,0,0-32.52,32.52v10.81H389.29a19,19,0,0,0-19,19v88.51a19,19,0,0,0,19,19H552.62a19,19,0,0,0,19-19v-88.51A19,19,0,0,0,552.62,1289.38Zm-115.68-10.81A19.65,19.65,0,0,1,456.57,1259h28.77A19.64,19.64,0,0,1,505,1278.57v10.81h-68Z"/><path class="cls-5" d="M480.91,1224.29s20,38.61,10,53.63-45.77-4.29-48.63-12.87,0-50.06,0-50.06Z"/><path class="cls-19" d="M395.26,922.24s7.45,106.26,7.36,150.22,34.89,160.89,34.89,160.89,23.15,1.86,32.23.69c10.47-1.35,16.7-6.16,16.7-6.16s-7.68-138.15,7-191.1,15.43-159.3,15.43-159.3-8.14-23-56.89-15.71C394.14,870.37,395.26,922.24,395.26,922.24Z"/><path class="cls-22" d="M416,802.15c-3.69,12.85-8.86,32.69-7.15,37.6,0,0,72.23,7.6,101.11,35.75,0,0-10.45-38.44-22-48.54C479.51,819.6,447,803.84,430,795.8A10.1,10.1,0,0,0,416,802.15Z"/><path class="cls-9" d="M481.12,785.81c-5.73,0-41.43.08-51.46,8.56a6.13,6.13,0,0,1-1,.71c1.67-12.29,1.6-24.85-2.67-34.21.36-2.87.71-5.44,1-7.43,4.64-.75,13.77,2.51,17.63,5.73,5.87,4.89,34.11,19.23,35.58,20l.16.64v0C480.5,780.81,480.82,782.9,481.12,785.81Z"/><path class="cls-5" d="M504.12,783.55s-59.05,11.3-65.53-25.58-18.45-60.27,19-69.05,47.24,4,52.4,15.8S519.31,779.65,504.12,783.55Z"/><path class="cls-21" d="M428,774s3.07-2.34-8.89-20.46-17.62-13.15-17.77-32.46-7.33-30.9,15.08-43.47,18.84-24.22,32.28-27,33,8.29,44.54,6,47.68,44.71,24.53,55.84c0,0-10.76.54-18.31-4.12s-35.27-9.37-38.51-.94S440.12,767.48,428,774Z"/><path class="cls-23" d="M3648.27,1774.24H243a2.78,2.78,0,0,1-2.77-2.77h0a2.78,2.78,0,0,1,2.77-2.77H3648.27a2.78,2.78,0,0,1,2.77,2.77h0A2.78,2.78,0,0,1,3648.27,1774.24Z"/><path class="cls-24" d="M1267.6,965l-31.43-4.48a3.87,3.87,0,0,1-3.29-4.38l2-14.06a3.87,3.87,0,0,1,4.37-3.29l31.44,4.48a3.87,3.87,0,0,1,3.29,4.38l-2,14.06A3.87,3.87,0,0,1,1267.6,965Z"/><rect class="cls-25" x="1238.67" y="943.37" width="10.35" height="13.87" transform="translate(146.5 -165.97) rotate(8.11)"/><path class="cls-25" d="M1267.51,950.17l-12.75-1.81a1.75,1.75,0,0,1-1.47-2h0a1.75,1.75,0,0,1,2-1.48l12.75,1.82a1.73,1.73,0,0,1,1.47,2h0A1.72,1.72,0,0,1,1267.51,950.17Z"/><path class="cls-25" d="M1267.9,955.06,1253,953a.66.66,0,0,1-.56-.75h0a.65.65,0,0,1,.74-.56l14.88,2.12a.66.66,0,0,1,.56.74h0A.66.66,0,0,1,1267.9,955.06Z"/><path class="cls-25" d="M1267.6,957.19l-14.88-2.12a.66.66,0,0,1-.56-.75h0a.66.66,0,0,1,.75-.56l14.87,2.12a.66.66,0,0,1,.56.75h0A.65.65,0,0,1,1267.6,957.19Z"/><path class="cls-24" d="M1776.14,947.35l-28.94-1.78a3.53,3.53,0,0,1-3.31-3.74l.79-13a3.54,3.54,0,0,1,3.75-3.31l28.94,1.78a3.54,3.54,0,0,1,3.31,3.75l-.8,12.94A3.53,3.53,0,0,1,1776.14,947.35Z"/><rect class="cls-25" x="1748.72" y="929.42" width="9.45" height="12.66" transform="translate(60.83 -106) rotate(3.52)"/><path class="cls-25" d="M1775,933.9l-11.74-.72a1.58,1.58,0,0,1-1.48-1.68h0a1.59,1.59,0,0,1,1.68-1.48l11.73.72a1.59,1.59,0,0,1,1.48,1.68h0A1.57,1.57,0,0,1,1775,933.9Z"/><path class="cls-25" d="M1775.69,938.33l-13.7-.85a.6.6,0,0,1-.56-.64h0a.6.6,0,0,1,.64-.56l13.69.84a.6.6,0,0,1,.56.64h0A.6.6,0,0,1,1775.69,938.33Z"/><path class="cls-25" d="M1775.57,940.28l-13.7-.84a.6.6,0,0,1-.56-.64h0a.6.6,0,0,1,.64-.56l13.69.84a.6.6,0,0,1,.56.64h0A.59.59,0,0,1,1775.57,940.28Z"/><path class="cls-18" d="M1684.17,1051.46a4.55,4.55,0,1,1,4.55,4.54A4.55,4.55,0,0,1,1684.17,1051.46Z"/><path class="cls-18" d="M1684.17,1080a4.55,4.55,0,1,1,4.55,4.55A4.55,4.55,0,0,1,1684.17,1080Z"/><path class="cls-26" d="M3470.79,1571.49s-31.64-36.91-1.95-60.36c0,0,21.69-13.13,39.37-12.06,0,0-25.06,42-16.95,46.19s24.54-48.83,24.54-48.83,49.36-4.78,65.23,2.85c0,0-42.19,34.52-33.3,36.58s54.45-31.83,54.45-31.83,45.94,7.81,43.49,35.84-18.28,36.67-25.23,35.92-47.65-16.27-48.54-10.58,23.61,24.33,40.76,25.2c0,0-32.38,35.72-53.91,25.41s-23.35-26.65-36.77-32.77-24.87-6.12-19.33.13,29.82,12.33,37.49,25.9,14.56,22.72-7.71,19.37-58.46-19.64-60-38.3Z"/><path class="cls-26" d="M3623.1,1540.62s-124.76-4.81-152.31,30.87c0,0-6.09,18.25-24.84,34.87l-2.93,8s21.62-22.79,29.36-24.17C3472.38,1590.15,3460.28,1546,3623.1,1540.62Z"/><path class="cls-26" d="M3446,1606.36s-26.78,19.8-28.64,55.19l4.86.43s8.55-36.58,24-50.89S3446,1606.36,3446,1606.36Z"/><path class="cls-27" d="M3360.16,1525.07s50.33-28.19,26.84-66.44c0,0-18.79-23.49-38.92-29.53,0,0,10.74,57,0,58.39s-7.38-64.43-7.38-64.43-53-25.5-73.82-23.49c0,0,32.88,55.7,22.14,54.36s-47.65-57.71-47.65-57.71-54.36-10.07-63.08,22.14,5.37,48.32,13.42,50.34,59.73,1.34,58.39,8-36.24,17.45-55.71,11.41c0,0,21.48,53,49.67,50.33s36.91-20.13,54.36-21.47,30.2,3.35,21.47,8-38.25,1.54-52.34,13.52-25.51,19.36.67,24.73,73.15,2,82.54-18.12Z"/><path class="cls-26" d="M3203.12,1428.43s140.93,45.63,157,96.64c0,0-.67,22.82,13.42,49v10.07s-14.76-34.23-22.82-38.93C3350.76,1545.2,3382.31,1500.91,3203.12,1428.43Z"/><path class="cls-26" d="M3373.58,1574.06s21.74,33,9.35,73.18l-5.6-1.5s5.43-44.25-5.94-66.51S3373.58,1574.06,3373.58,1574.06Z"/><path class="cls-27" d="M3440.24,1486.2s-66.35-37.16-35.39-87.58c0,0,24.77-31,51.31-38.93,0,0-14.15,75.2,0,77s9.73-84.93,9.73-84.93,69.89-33.62,97.31-31c0,0-43.34,73.42-29.19,71.65s62.81-76.08,62.81-76.08,71.66-13.27,83.16,29.2-7.08,63.69-17.7,66.34-78.73,1.77-77,10.62,47.77,23,73.43,15c0,0-28.31,69.89-65.47,66.35s-48.65-26.54-71.65-28.31-39.81,4.42-28.31,10.62,50.42,2,69,17.82,33.62,25.52-.89,32.6-96.42,2.66-108.81-23.88Z"/><path class="cls-26" d="M3647.25,1358.81s-185.78,60.15-207,127.39c0,0,.88,30.07-17.7,64.58v13.27s19.47-45.12,30.08-51.31C3452.62,1512.74,3411,1454.35,3647.25,1358.81Z"/><path class="cls-26" d="M3422.54,1550.78s-28.65,43.5-12.31,96.46l7.37-2s-7.16-58.33,7.83-87.67S3422.54,1550.78,3422.54,1550.78Z"/><path class="cls-10" d="M3438,1762.09a130,130,0,0,0,130-130H3308A130,130,0,0,0,3438,1762.09Z"/><path class="cls-28" d="M3470,1761.09a130,130,0,0,1-146.11-129h32.29A130,130,0,0,0,3470,1761.09Z"/><path class="cls-10" d="M3569.76,1768.7H3306.24a16,16,0,0,1,16-16h231.46a16,16,0,0,1,16,16Z"/><rect class="cls-29" x="3303.76" y="1632.12" width="267.16" height="3.99"/><path class="cls-5" d="M3230.42,1753.83s-34.72-39.69-44.55-57.76l-27-49.89-35.36,8.75,44.88,63.61,46.88,39.67Z"/><path class="cls-30" d="M3006.81,779.06c-8.16-4.64-17.93-5.15-24.77-4.74,1.76-1.82,5.22-2.48,5.22-2.48-4.24-.63-13.7,3.57-13.7,3.57-59-22.72-68.25,64.12-67,84.29s-19.81,26.76-50.5,42.66c-58.54,30.32-63.68,70.93-63.68,70.93.45.27.93.58,1.43.93,2.91-4.92,8.89-14.16,13.93-15.56-.19.45-6,12.73-8.11,19.76,17.27,13.14,49.58,42.25,72.1,62.89-.1-4,.06-9.76,1.53-12.79l2.78,16.76c12,11.07,20.36,18.87,20.36,18.87-1.49-16.31,73.74-102.34,113-128.11,9.55-14.06,13-38.91,13.2-40.86-1.65,19.7-5,30.75-8,37C3047.77,901.57,3028.43,791.34,3006.81,779.06Z"/><path class="cls-5" d="M3007.05,937.33c.19.08-19,10-33.35,6.09-13.55-3.7-22.4-21.26-22.21-21.3,5.73-1.14,7.39-9,7.27-42.9l2.59.51,43.61,8.64s-1,13.72-1,26.65C3003.9,925.87,3004.56,936.17,3007.05,937.33Z"/><path class="cls-31" d="M2957.74,793.28s21.51-22.9,48.51-1.18C3006.25,792.1,2990.54,789.39,2957.74,793.28Z"/><path class="cls-32" d="M3005,888.37s-1,13.72-1,26.65c-24.4-.69-37.29-22.95-42.58-35.29Z"/><path class="cls-30" d="M2956.85,875s-12.79-20.21-15.86-37.48c-2.19-12.34,4.09-58.06,50-51.47a62.35,62.35,0,0,1,25.88,9.78c10,6.74,24.37,21.29,8.28,61.18L3021,870.48Z"/><path class="cls-33" d="M3178.75,1678.64l-23.11.71-25,.76s-57.79-64.34-90.21-167.48c-.75-2.4-1.55-4.82-2.39-7.28-17.74-51.73-54.52-116.66-73.9-175.43-3.09-9.36-5.86-18.17-8.34-26.51q-1.2-4-2.31-7.88c-14.28-49.62-18.42-82.21-22.23-117l140,1.12S3093.78,1417.35,3178.75,1678.64Z"/><path class="cls-10" d="M3061.37,1194.38s-59.92,30.44-131.14,8c-.84-.27,4.7-275.28,24.9-282.86,4.65,5.79,18.4,11.58,30.72,11.3,14.19-.31,18.79-6.38,18.05-13,15.12,8.41,27.18,16.35,27.18,16.35C3043.93,956.52,3061.37,1194.38,3061.37,1194.38Z"/><path class="cls-20" d="M2931.24,1106.64c-6.12,8.65-17.85,61.28-47,67.9,15-37.51,26.46-54,28.24-65.49,3.31-21.52,3.38-43.8,1.73-64.81,9.77-17.12,17.06-28.86,17.06-28.86.77-2.76,15.52-48.39,20.25-7.61S2938.07,1097,2931.24,1106.64Z"/><path class="cls-5" d="M3013.1,900.61s-57.73.95-57.77-35-7.51-60.06,29.34-62.19,44,11.59,47,23.59S3028.12,899.43,3013.1,900.61Z"/><path class="cls-30" d="M3011,802.53s-15.81,42.19-40.07,48.43-34.78-.26-34.78-.26,18.61-14.78,22.47-40.58C2958.59,810.12,2999,782.45,3011,802.53Z"/><path class="cls-30" d="M3007.05,806s11.8,9.42,14.68,18.58,4.17,28,9.67,27.36c0,0,11.91-28.67-1.48-44.89C3015.73,789.8,3007.05,806,3007.05,806Z"/><path class="cls-5" d="M3245.41,960.29s8.14-29.33,40.38-25.18c3.71,1.16,14.52,5.47,7.61,17-5.1,8.54-7.3,4.13-15.32,15.6s-16.71,14.06-26.65,12.69Z"/><path class="cls-5" d="M2969.85,1747.89c-2-10.8-5.7-29.49-5.7-29.49l.87-66.3h-40.27l15.06,63.46a64.35,64.35,0,0,1-3.09,26.5s-3.87,17.62,13.49,18S2971.82,1758.7,2969.85,1747.89Z"/><path class="cls-34" d="M2971.49,1768.63H2935.4c-1.8-9.44,1.32-26.54,1.32-26.54,19.64,19,31.94-.48,31.94-.48C2971.59,1749.05,2971.53,1765.85,2971.49,1768.63Z"/><path class="cls-34" d="M3247.27,1768.75h-44.49c-3.86-3.59-7.56-10.66-12.06-19.9-2.62-5.35-8.48-8.3-14.49-9.92v29.82H3167l-8.46-31.72c-5.67-10.67-1.33-20.27,2.66-28.7,4.64,0,18,3.17,41.62,30.46,7.77,9,16.34,12.16,24.86,11.88a2.45,2.45,0,0,0,.35.19C3241.37,1757,3245.81,1764.55,3247.27,1768.75Z"/><path class="cls-17" d="M3245.41,960.29s-37.89,21.19-51.43,27.3c-7.72,3.48-25.47,11.8-38,17.68a19.54,19.54,0,0,1-23.14-5c-20.55-24-74-76-128.95-82.43,0,0,33.4,82.51,34.39,99.21s3.92,273.08,3.92,273.08-2,11.79,20.63,6.88,28.49-9.83,28.49-9.83S3069.72,1129,3075.61,1074c1.16-10.84.11-23-2.33-35.62,33.46,20.35,73.06,29.4,73.06,29.4s29.6-12.91,70.07-42.56c12.7-9.31,35-44.81,35-44.81Z"/><path class="cls-20" d="M3155.64,1679.35l-25,.76s-57.79-64.34-90.21-167.48c-.75-2.4-1.55-4.82-2.39-7.28-17.74-51.73-54.52-116.66-73.9-175.43-3.09-9.36-5.86-18.17-8.34-26.51q-1.2-4-2.31-7.88l20.61-15.64s61.87,100.2,81,194.49C3071.75,1556.28,3138.39,1654.84,3155.64,1679.35Z"/><path class="cls-33" d="M2976.23,1483.16c.35,45.85-2,151.28-7.94,194.92h-22.16c-12.25,0-18.36-.18-18.36-.18-15-75.88-25.64-138.67-33.4-192.77-6.36-44.41-12-82.47-16.37-115.24-4.38-33-7.43-60.59-8.52-83.92-.16-3.67-.29-7.25-.36-10.71s-.09-6.88-.06-10.17L2990,1253.3C2988.46,1333.64,2976,1456.51,2976.23,1483.16Z"/><path class="cls-20" d="M2946.13,1678.08c-12.25,0-18.36-.18-18.36-.18-15-75.88-25.64-138.67-33.4-192.77-6.36-44.41-12-82.47-16.37-115.24-4.38-33-7.43-60.59-8.52-83.92l44.37,26.1s-28.32,10-17.51,85.63S2931.09,1667.37,2946.13,1678.08Z"/><path class="cls-17" d="M2951.84,1285.23s-8.51,30.77-38,26.84-71.38-21.61-71.38-21.61,12.6-39.79,28.25-92.07c.17-.55.33-1.11.5-1.67,18.48-61.73,41.06-140.31,52.29-191.44.24-1.09.47-2.17.7-3.23,3.1-14.42,5.23-26.46,6-35.09l24.9-47.4s36,81.78,38,102.41S2951.84,1285.23,2951.84,1285.23Z"/><path class="cls-5" d="M2922.42,1018.9l32.71-99.34c-.09.05-41.2,12.07-61.66,22.4,0,0-12.78,16.49-20.69,54.52,0,0-8.36,91.31,10.3,124.7,0,0,58.94,11.79,153.24-20.62V1079s-103.14,5.4-124.26,7.85Z"/><path class="cls-18" d="M2947.7,1065.19c-1.3,33-9,96.5-76.47,131.53,18.48-61.73,41.06-140.31,52.29-191.44C2935.76,1024.07,2948.37,1047.81,2947.7,1065.19Z"/><path class="cls-17" d="M2955.13,919.56s-60.26,4.18-74.67,36.27-19,138.83-.65,170.27c0,0,25.24,7.19,69.89-1.16l1.65-.32s14.24-34.87,1.47-41.75c0,0-37.65,2-33.72-10.47S2955.13,919.56,2955.13,919.56Z"/><path class="cls-5" d="M3025.75,1084.69s8.21-10,10-20.12,7.2-17.71,21.38-19.57,20.28-2.07,20.24,1.93-11.59,31.91-31.94,48.58S3025.75,1084.69,3025.75,1084.69Z"/><polygon class="cls-35" points="747.37 1439.27 2189.67 1442.55 2189.67 1261.85 747.37 1261.85 747.37 1439.27"/><path class="cls-5" d="M1063,1113.77h-61.79l-.45.26.14-.26,6.71-12.78s2-1,5.06-2.28c6.5-2.7,17.59-6.5,23.25-3.85C1043.63,1098.51,1060.72,1107,1063,1113.77Z"/><path class="cls-36" d="M1012.77,1098.86s-2.62,9.73-11.59,14.91l-.45.26.14-.26H893.29a75.56,75.56,0,0,1-14.28-17.6,99.58,99.58,0,0,1-5-9.53c-5.29-11.42-9.78-26.57-11.11-46.14-2.58-37.81-5.27-100.15-6.74-136.66-.71-17.57-1.14-29.15-1.14-29.15h0c.65.42,42.55,28.13,51.27,113.65,0,0,2.2,68.77,9.88,74.18s89.13,27.45,96.51,36.18Z"/><path class="cls-16" d="M840.92,748.16s-5.54-79-108.18-49.11c-23.29,6.79-20.26,77.11,36.14,103.88Z"/><path class="cls-17" d="M799.89,852.51s40.18,7.28,55.08,22.18,50.06,58.86,27.94,205.42c0,0-1.78,44.17-51.45,48.43S799.89,852.51,799.89,852.51Z"/><path class="cls-37" d="M707.55,1217c6.91,48.09,53.26,173.1,51.91,216.31-1.07,34-.51,112.71,4,165,1.23,14.21,2.7,26.4,4.55,35.28,4,19.27,9.1,41.47,11.85,55.46,6.13,31.4,2.93,49.72,7.93,66.57,5.5,18.43,68.71,15.06,49.66,3.88-6.79-4-16.68-12.47-21.57-23.43-17.76-39.78,7.13-211.31,14.55-277.44,1-8.26,1.63-14.83,1.91-19.33,2.47-40.84,30.51-313,30.51-313C794.75,1088.43,700.69,1168.9,707.55,1217Z"/><path class="cls-38" d="M707.55,1217c6.91,48.09,53.26,173.1,51.91,216.31-1.07,34-.51,112.71,4,165l67-139.68c1-8.26,1.63-14.83,1.91-19.33,2.47-40.84,31.22-313.06,31.22-313.06C795.45,1088.33,700.69,1168.9,707.55,1217Z"/><path class="cls-37" d="M855.28,1135.14S796.79,1404,790.15,1444.33s-59.9,230.41-48.3,278c6.85,28.09,18.79,36.4,18.79,36.4,2.81,5.15-43.45,15.38-47.18-4.33-4.75-25-5.74-60.16-12.69-119.72-12-102.54,11.76-160.89,17.51-203.74s-19.31-179.08-5.4-225.63C737.23,1123.88,791.45,1090.48,855.28,1135.14Z"/><path class="cls-17" d="M871,1372.35a174.85,174.85,0,0,1-33.63,9.7l-.09,0a296.3,296.3,0,0,1-35.73,4.45,451.61,451.61,0,0,1-48.26.49L749,1337.23l-4.49,18-7.7,30.86c-7.12-.5-13.51-1.08-18.92-1.64-11.63-1.19-18.72-2.29-18.72-2.29-13.1-108,2.6-176.08,20.35-216.29h0a183.27,183.27,0,0,1,16.64-30.22c2.79-4.05,5.39-7.41,7.66-10.11,1.86-2.21,3.51-4,4.87-5.39a47.55,47.55,0,0,1,4.21-3.92c6.06,2.33,12,4.29,17.84,5.94,4.16,1.18,8.25,2.19,12.24,3l.2,0c2.75.6,5.45,1.12,8.11,1.58,1,.18,2,.35,2.94.5q4.69.75,9.16,1.25a199.67,199.67,0,0,0,42.36.43,135.9,135.9,0,0,0,17.05-2.67l.71-.17.08,2.75,1.43,47Z"/><path class="cls-17" d="M770.22,1768.67H715c-4.27-7.75-10-30.94-14.29-35.79-.31-.34-.65-.74-1-1.19l-.44,37h-5c-.12-7.88-.73-35.45-3.44-50.94-3-5.64-5.07-11.11-4.15-13.42,1.92-4.8,19.62-15.48,19.62-15.48s13.1,65.51,19.29,67.07c14.77,3.72,29.62,2.34,33.83,1.83.77-.1,7.42,2.87,9.92,6.83A5.31,5.31,0,0,1,770.22,1768.67Z"/><path class="cls-17" d="M844.2,1768.67H788.93c-4.22-7.65-9.82-30.36-14.14-35.58l-.43,35.58h-5c0-1.05,0-2.44-.07-4.11-.22-10.1-.9-30.2-2.87-43.78-3.78-6.62-6.9-13.74-5.81-16.47,1.91-4.8,19.22-15.38,19.22-15.38s.07.58.26,1.52c0,.14,0,.28.08.43s.07.38.11.59.06.29.09.45c2.52,12.67,12.77,62.38,19.15,64,16.85,4.24,33.8,1.85,35,1.68h.06S845.56,1762.91,844.2,1768.67Z"/><path class="cls-39" d="M874,1086.64c-1.85,10.13-3.73,18.86-5.32,25.7-.12.49-.23,1-.34,1.43-2.24,9.46-3.84,14.91-3.84,14.91-.27.1-.55.18-.83.27l-.38.13-.71.23q-5.7,1.83-11.17,3.19a149.83,149.83,0,0,1-53.48,3.79A134.14,134.14,0,0,1,776,1132c-1.46-.41-2.86-.84-4.21-1.29l-.19-.05c-3.48-1.14-6.6-2.33-9.33-3.48a82.91,82.91,0,0,1-13.58-7l0,0a35.59,35.59,0,0,0,1.82-6.37,123.94,123.94,0,0,0,2-17.86c.63-12.25.44-27.56-.23-44.4,0-.49,0-1,0-1.47-.86-21.12-2.43-44.53-4.06-67.26-1.26-17.46-2.54-34.51-3.56-49.81q-.48-7.05-.86-13.54c-1.43-24.14-1.81-41.93.33-46.6,3.26-7.09,13.35-11.39,24.1-14,1.54-.37,3.1-.71,4.64-1,.22,0-.46-1.74-.24-1.78,1.48-.29,3.84,1.1,5.3.88l1.85-.29a176.07,176.07,0,0,1,20-1.78l.5,0A133.71,133.71,0,0,1,816.71,865c.73.52,10.2-5.64,11-5.07a84.94,84.94,0,0,1,30.19,42.44c8.25,26.8,20.38,40.06,22.92,66.52C884.89,1011.87,879.59,1055.76,874,1086.64Z"/><path class="cls-17" d="M712.41,1133.51c20.57,4.21,53.38,2.08,77.71-4.89a84.61,84.61,0,0,0,20.62-8.48c21.74-13.38,32.3-112.37,28.54-149.85S772.54,856,772.54,856c-15.45,11.46-22.26,38.13-31.53,73.13C718.71,1013.39,712.41,1133.51,712.41,1133.51Z"/><path class="cls-36" d="M712.41,1133.51c20.57,4.21,53.38,2.08,77.71-4.89A123.29,123.29,0,0,0,810,1081.48c11.07-54.61-32.59-113.88-69-152.32C718.71,1013.39,712.41,1133.51,712.41,1133.51Z"/><path class="cls-21" d="M843.35,1050.33l-48.45-35a13.48,13.48,0,0,0-18.76,3l-54,74.87a13.48,13.48,0,0,0,3,18.76l48.44,35a13.49,13.49,0,0,0,18.77-3l54-74.87A13.47,13.47,0,0,0,843.35,1050.33Z"/><path class="cls-40" d="M800.42,1087.83s23.68-2.4,26.61,1.59.26,19.43-13,21-28.47-9.32-28.47-9.32Z"/><path class="cls-17" d="M772.54,856s-42.1,5-60.36,42.88-37.92,135.55-33,144.67,63.91,58.3,112.37,64.62c0,0,10.54-13.35,9.83-25.29,0,0-65.31-40.73-70.93-52S780.3,926.3,779.6,910.15,772.54,856,772.54,856Z"/><path class="cls-16" d="M820,732.48s24.69,3,26.1,31.53c0,0,10.81-45.17-28.3-44.26S820,732.48,820,732.48Z"/><path class="cls-5" d="M827.67,859.92s-2.23-23.84-1.71-30h0c.28-3.15.6-5,.6-5l-.6-.18-49.44-15.06c0,.39,0,.79,0,1.18-.63,13.36-1.4,23.72-2.23,31.77-.1,1.05-.21,2.06-.32,3-.45,4.09-.92,7.51-1.38,10.36a200.7,200.7,0,0,0,24,9c17.74,5.16,25.42,3.1,28.71,0C828,862.39,827.73,860.32,827.67,859.92Z"/><path class="cls-9" d="M822.05,824.75V830s-28.47.32-47.81,12.69c.83-8,1.6-18.41,2.23-31.77Z"/><path class="cls-5" d="M835.71,828.32s-59.91,12-66.83-25.39-19.31-61.07,18.65-70.33,48.05,3.63,53.39,15.56S851.11,824.23,835.71,828.32Z"/><path class="cls-16" d="M815.37,724.29s16.94,21.22-14,40.63-28.53,58.2-20.32,69.12c0,0-61.51-60-33-95.8S815.37,724.29,815.37,724.29Z"/><path class="cls-29" d="M1985.36,1677.64a24.75,24.75,0,1,1-24.75-24.74A24.75,24.75,0,0,1,1985.36,1677.64Z"/><path class="cls-10" d="M1995.1,1677.64a24.75,24.75,0,1,1-24.75-24.74A24.75,24.75,0,0,1,1995.1,1677.64Z"/><circle class="cls-29" cx="2125.45" cy="1743.56" r="24.74"/><circle class="cls-10" cx="2135.19" cy="1743.56" r="24.74"/><path class="cls-29" d="M1941.18,1650.82l27.38,25.45a31.74,31.74,0,0,0,9.46,6.09L2162.36,1759l34.25-24.65Z"/><path class="cls-29" d="M2329.31,1374.42l-8.78-6.06c40.41-58.49,118.54-173.72,125-191.18,4.06-11,4.08-20.19.08-27.31-6.42-11.42-21.38-14.47-21.53-14.5l-.56-.14-40.93-12.65c-46.88-18.67-66.93,18.13-67.76,19.7l-.28.47L2205.13,1308l-8.9-5.89,109.26-165.08a63.24,63.24,0,0,1,19.27-20.57c12.07-8.13,32.54-15.39,61.54-3.91l40.08,12.37c2.71.58,20.07,4.79,28.45,19.59,5.66,10,5.88,22.2.68,36.32C2447,1203.94,2334.11,1367.47,2329.31,1374.42Z"/><path class="cls-29" d="M2317,1332.85l90.57,62.19s23.86,24.1-3.53,72.26c-24.09,42.38-153.12,282.8-153.12,282.8s-26.87,50-131.47-12.58Z"/><path class="cls-10" d="M2342.45,1425.09l-146.39,268.44a68.76,68.76,0,0,1-87,30.47l-92.1-38.74-2.28-1-57.69-24.26a69.14,69.14,0,0,1-15.77-9.24c-1.1-.85-2.16-1.74-3.2-2.65a68.74,68.74,0,0,1-12.69-88l156.29-249.9a68.8,68.8,0,0,1,79.24-29l16.89,5.39,4,1.29h0l3.38,1.09,56.46,18,6.92,2.21,54.48,17.4a68.76,68.76,0,0,1,22.63,12.24c.43.35.85.7,1.27,1.07l2.58,2.33A68.81,68.81,0,0,1,2342.45,1425.09Z"/><path class="cls-41" d="M2171.76,1719.16A68.73,68.73,0,0,1,2109,1724l-92.1-38.74-2.28-1-57.69-24.26a69.14,69.14,0,0,1-15.77-9.24c-1.1-.85-2.16-1.74-3.2-2.65-17.09-15.13-29.73-49.07-19.11-74.78,0,0,195.4,80.61,233.34,104.26C2171.76,1689.84,2171.76,1707.17,2171.76,1719.16Z"/><path class="cls-29" d="M2185.12,1289c-.51.07-54.22,7.8-69.59,28.21-15.78,21-171.17,277.76-172.74,280.35-.12.21-12.47,26.16,1,55.2l-2.62-2c-1.1-.85-2.16-1.74-3.2-2.65-11.83-29.22,1-51.57,1.59-52.54,6.41-10.6,157.07-259.54,173-280.67,13.93-18.51,52.79-26.28,65.18-28.33l4,1.29h0Z"/><path class="cls-29" d="M2248.5,1309.23c-7.9,1.52-38.9,9.29-57.94,40-22.33,36-164.86,305.85-166.29,308.57l-.11.2-.14.16c-.1.12-9.83,13.82-4.8,28.1l-2.31-1-2.28-1c-4.31-14.84,5-26.81,6.39-28.47,4.42-8.34,144.18-272.9,166.33-308.61,16.41-26.44,41.35-36.58,54.23-40.21Z"/><path class="cls-29" d="M2329.46,1342.27a78.28,78.28,0,0,0-22.55,6.63,85.92,85.92,0,0,0-36.22,32.76c-22.32,36-159.71,306.92-161.1,309.64l-.1.22-.15.17c-.1.12-8.2,16.83-3.18,31.11l-5.8-2.44c-3.18-12.44,4.51-29.2,6-30.95,4.4-8.66,139-274,161.16-309.74,20.83-33.58,51.71-39.84,58.12-40.8.43.35.85.7,1.27,1.07Z"/><g id="man"><path class="cls-21" d="M2377.14,1676.05s-19.65,18.21-15.82,31.15,21.57,21.57,24,37.39,12,24.44,20.61,24.44H2447s6.35-11.13-9-14.49-21.12-21.94-20.16-39.19-1.44-40.26-1.44-40.26l-32.59-7.67Z"/><path class="cls-21" d="M2733.41,1769H2624.19a9.51,9.51,0,0,1-2.13-.64c-7.28-3.64-5-31.49-4.13-40.12.17-1.6.29-2.54.29-2.54s38.35-30.67,43.62-7.18c.16.73.36,1.45.57,2.16,6.63,22,36.4,32,53.59,34.74C2729.11,1757.55,2732.52,1765.17,2733.41,1769Z"/><path class="cls-16" d="M2711.44,1140.2s-5.83,72.65-12.67,160c-9.3,118.64-20.49,264.37-21.6,292-1.91,47.93-9.59,124.62-9.59,124.62s-18.2,18.21-54.64,10.54c0,0-32.46-109.47-41.74-225.29-.14-1.9-.29-3.81-.43-5.72-8.63-117.91-22-366.19-22-366.19Z"/><path class="cls-21" d="M2711.44,1140.2s-5.83,72.65-12.67,160L2571.2,1502c-.14-1.9-.29-3.81-.43-5.72-8.63-117.91-22-366.19-22-366.19Z"/><path class="cls-16" d="M2684.84,1148.82s-105,263.14-174,386.79-90.59,158.17-90.59,158.17-39.54-15.82-43.13-26.6c0,0,26.39-238.73,72.61-296.92,26.12-32.88,56.8-131.57,58.23-166.08s9.35-102.8,9.35-102.8Z"/><path class="cls-42" d="M2791,1076.18l6,12s30.51,4.26,22.11,36.07c0,0-4.52,13.08-12.93,8.94s-4.27-3.79-16.33-9.36-19-16.28-16.34-26.1l-1.93-10.41Z"/><path class="cls-43" d="M2631,742.66c4.67-27.56,4.81-43.89,4.81-43.89l-53.26-42.92c2,59-35.84,87.39-35.84,87.39s71,34.94,112,22A98,98,0,0,0,2631,742.66Z"/><path class="cls-42" d="M2648.36,697.79s-67.75,11.26-74.11-31-19.38-69.34,23.6-78.31,53.84,5.9,59.4,19.5S2665.82,693.77,2648.36,697.79Z"/><path class="cls-21" d="M2574.7,669.67s1.37-56.67,63.1-65.76c42.28-6.23,16.68-41.56,11.84-47.16,0,0-32.32,6.17-65.4,13.43C2514.8,585.42,2567.36,661.24,2574.7,669.67Z"/><path class="cls-22" d="M2783.88,1092.8c9.06-9.29,15.79-21.39,15.79-21.39s-77-95.64-83.24-105.56-53-169-53-169l-118.22-24s98.68,203.6,115,228.41c27,41,107.83,102.06,107.83,102.06A48.68,48.68,0,0,0,2783.88,1092.8Z"/><path class="cls-25" d="M2716,1146.25a6.66,6.66,0,0,1-4.31,1.64c-15.4-.21-60.32,8.35-98.32,4.44-32-3.07-60.4-12.56-90.86-26.21-4-1.82-13.35-6.78-13.14-11.31.14-4.94.63-12.12,1.25-21.16,2.15-31.44,5.91-85.5,2.25-147.88-.66-11.62-1-23.14-1-34.48-.31-84.54,16.16-159.31,49.85-184.48,2.87-2.06,20.82,7,37,15,15,7.39,25.49,7.22,39.65,4.36L2657,759.68c17.25,16,36.15,37.79,44.37,70.86,7,28.14,11.09,78.88,13.35,131.46,1,23.83,1.85,47.86,2.06,70.66v.82c.2,2.26.2,4.73.2,7C2717.82,1099,2717,1145.42,2716,1146.25Z"/><path class="cls-22" d="M2510.58,1093.65c2.15-31.44,5.91-85.5,2.25-147.88-.66-11.62-1-23.14-1-34.48,14-34,25.5-58.72,25.5-58.72h35.37S2598.58,1029.68,2510.58,1093.65Z"/><path class="cls-42" d="M2441.77,1104.66l-6.72,11.57s13.16,27.85-18.05,38.26c0,0-13.42,3.39-14.57-5.92s.83-5.65-1.12-18.79,3.19-24.84,12.88-28l7.65-7.32Z"/><path class="cls-25" d="M2424,1107.82c12.73,2.48,26.54,1.48,26.54,1.48s37.81-116.81,42.68-127.48,112.31-137,112.31-137l-44.76-112s-116.21,194.12-128,221.4c-19.5,45.07-26.27,146.13-26.27,146.13A48.66,48.66,0,0,0,2424,1107.82Z"/></g><path class="cls-24" d="M2971.19,1006.23l-22.09,5.8a2.79,2.79,0,0,1-3.4-2l-2.59-9.88a2.79,2.79,0,0,1,2-3.4l22.09-5.8a2.78,2.78,0,0,1,3.4,2l2.6,9.88A2.79,2.79,0,0,1,2971.19,1006.23Z"/><rect class="cls-25" x="2947.63" y="998.15" width="7.44" height="9.97" transform="translate(-157.99 782.35) rotate(-14.71)"/><path class="cls-25" d="M2967,996.45l-9,2.35a1.23,1.23,0,0,1-1.52-.89h0a1.24,1.24,0,0,1,.88-1.52l9-2.35a1.23,1.23,0,0,1,1.52.89h0A1.24,1.24,0,0,1,2967,996.45Z"/><path class="cls-25" d="M2968.63,999.59l-10.45,2.74a.47.47,0,0,1-.58-.34h0a.47.47,0,0,1,.33-.58l10.46-2.74a.47.47,0,0,1,.58.33h0A.49.49,0,0,1,2968.63,999.59Z"/><path class="cls-25" d="M2969,1001.08l-10.45,2.74a.47.47,0,0,1-.58-.34h0a.47.47,0,0,1,.34-.58l10.45-2.74a.48.48,0,0,1,.58.34h0A.49.49,0,0,1,2969,1001.08Z"/><polygon class="cls-19" points="2090.77 964.08 2058.61 1113.53 2183.97 1113.53 2212.01 964.08 2090.77 964.08"/><polygon class="cls-44" points="2095.08 968.84 2066.03 1103.83 2179.26 1103.83 2204.59 968.84 2095.08 968.84"/><path class="cls-19" d="M2189.74,979.68h-86.18a2.89,2.89,0,1,0,0,5.77h86.18a2.89,2.89,0,1,0,0-5.77Z"/><path class="cls-19" d="M2185.34,993.29h-86.18a2.89,2.89,0,1,0,0,5.77h86.18a2.89,2.89,0,1,0,0-5.77Z"/><path class="cls-19" d="M2182.59,1006.35h-86.18a2.89,2.89,0,1,0,0,5.77h86.18a2.89,2.89,0,1,0,0-5.77Z"/><path class="cls-19" d="M2178.61,1033.27h-86.19a2.89,2.89,0,0,0,0,5.78h86.19a2.89,2.89,0,0,0,0-5.78Z"/><path class="cls-19" d="M2174.21,1046.88H2088a2.89,2.89,0,1,0,0,5.77h86.18a2.89,2.89,0,1,0,0-5.77Z"/><path class="cls-19" d="M2171.46,1059.94h-86.18a2.89,2.89,0,1,0,0,5.77h86.18a2.89,2.89,0,1,0,0-5.77Z"/><rect class="cls-18" x="1997.5" y="1077.01" width="64.6" height="3.57" transform="translate(410.7 2710.49) rotate(-73.21)"/><path class="cls-17" d="M2021.15,1103.25c-6.41,0-11.69,4.48-12.49,10.28h25C2032.84,1107.73,2027.56,1103.25,2021.15,1103.25Z"/><path class="cls-17" d="M2037.53,1111.87a65.6,65.6,0,0,1-9.92-.86l.14-.81c4.78.82,17.5,2.06,18.92-2,.64-1.77,0-4.76-.77-8.9-1.49-7.53-3.74-18.91-1.1-34.79,2.07-12.43.53-16.19-1.12-17.16s-4.07.84-4.09.86l-.52-.65c.11-.09,2.81-2.22,5-.92,2.74,1.6,3.25,7.66,1.53,18-2.63,15.73-.39,27,1.09,34.49.84,4.27,1.45,7.35.74,9.34C2046.51,1111.18,2042,1111.87,2037.53,1111.87Z"/><polygon class="cls-10" points="1818.45 1194.38 1825.8 1209.28 1842.25 1211.67 1830.35 1223.27 1833.16 1239.65 1818.45 1231.92 1803.74 1239.65 1806.55 1223.27 1794.65 1211.67 1811.09 1209.28 1818.45 1194.38"/><polygon class="cls-10" points="1884.41 1194.38 1891.77 1209.28 1908.21 1211.67 1896.31 1223.27 1899.12 1239.65 1884.41 1231.92 1869.7 1239.65 1872.51 1223.27 1860.61 1211.67 1877.06 1209.28 1884.41 1194.38"/><polygon class="cls-10" points="1954.14 1194.38 1961.49 1209.28 1977.94 1211.67 1966.04 1223.27 1968.85 1239.65 1954.14 1231.92 1939.43 1239.65 1942.24 1223.27 1930.34 1211.67 1946.78 1209.28 1954.14 1194.38"/><polygon class="cls-10" points="2024.11 1194.38 2031.46 1209.28 2047.91 1211.67 2036.01 1223.27 2038.82 1239.65 2024.11 1231.92 2009.4 1239.65 2012.21 1223.27 2000.31 1211.67 2016.75 1209.28 2024.11 1194.38"/><polygon class="cls-10" points="2084.81 1194.38 2092.16 1209.28 2108.61 1211.67 2096.71 1223.27 2099.52 1239.65 2084.81 1231.92 2070.1 1239.65 2072.91 1223.27 2061.01 1211.67 2077.45 1209.28 2084.81 1194.38"/></svg>